<svg id="Шар_1" data-name="Шар 1" xmlns="http://www.w3.org/2000/svg" width="182.06" height="60" viewBox="0 0 182.06 60"><defs><style>.cls-1{fill:#73e6d3;}.cls-2{fill:#f3f5f9;}.cls-3{fill:#e1e6f0;}.cls-4{fill:#51cccc;}.cls-5{fill:#171832;}</style></defs><path class="cls-1" d="M61.86,6.59l-19.08,15L30.35,31.54,7.14,8.06Z"/><path class="cls-2" d="M21.84,27.7l1.73,3-12.12,7-1.73-3Z"/><path class="cls-2" d="M18.37,21.69l1.73,3-9,5.21-1.73-3Z"/><path class="cls-3" d="M25.31,33.71l1.73,3-9,5.21-1.74-3Z"/><path class="cls-4" d="M61.86,6.59,27.83,29,39,56.67Z"/><path class="cls-5" d="M30.77,37.46a.35.35,0,0,1-.3-.21.87.87,0,0,1-.1-.39.51.51,0,0,1,.08-.3.39.39,0,0,1,.3-.13,5.26,5.26,0,0,0,1.2-.22c.34-.12.5-.3.5-.53l0-12.68a.87.87,0,0,0-.27-.7,1.36,1.36,0,0,0-.61-.31,8.93,8.93,0,0,0-.91-.13.6.6,0,0,1-.34-.09.54.54,0,0,1-.08-.34.89.89,0,0,1,.11-.39.34.34,0,0,1,.29-.21h6.42a.31.31,0,0,1,.28.21.79.79,0,0,1,.12.39.53.53,0,0,1-.09.32.42.42,0,0,1-.3.11,4.71,4.71,0,0,0-1.2.24c-.33.11-.49.28-.49.51l0,12.68a.91.91,0,0,0,.27.71,1.45,1.45,0,0,0,.61.3c.23.05.53.09.9.13a.54.54,0,0,1,.34.1.43.43,0,0,1,.09.33.79.79,0,0,1-.12.39.31.31,0,0,1-.28.21Zm9.13,0a.35.35,0,0,1-.3-.21.87.87,0,0,1-.1-.39.45.45,0,0,1,.08-.3.39.39,0,0,1,.3-.13c1.29-.1,1.94-.43,1.94-1V23.21a1,1,0,0,0-.61-1,4.49,4.49,0,0,0-1.4-.39.6.6,0,0,1-.34-.09.54.54,0,0,1-.08-.34A.89.89,0,0,1,39.5,21a.32.32,0,0,1,.29-.21h4.55l9.23,12.36h.14V23a.77.77,0,0,0-.35-.69,1.69,1.69,0,0,0-.68-.3l-1.09-.15a.6.6,0,0,1-.34-.09.54.54,0,0,1-.08-.34.87.87,0,0,1,.1-.39.35.35,0,0,1,.3-.21H57a.31.31,0,0,1,.28.21.79.79,0,0,1,.12.39.51.51,0,0,1-.08.3.43.43,0,0,1-.31.13c-.4.05-.74.1-1,.15a2.26,2.26,0,0,0-.73.32.73.73,0,0,0-.33.65V36.14a2.25,2.25,0,0,0,0,.44L55,37a.59.59,0,0,1-.26.62,1,1,0,0,1-.64.2.94.94,0,0,1-.36-.08.71.71,0,0,1-.27-.18L43.28,24.18h-.2V35.29a.78.78,0,0,0,.34.69,2.08,2.08,0,0,0,.69.31c.23,0,.59.08,1.09.14a.54.54,0,0,1,.34.1.43.43,0,0,1,.09.33.79.79,0,0,1-.12.39.32.32,0,0,1-.28.21Zm19,0a.32.32,0,0,1-.29-.21.89.89,0,0,1-.11-.39.51.51,0,0,1,.08-.3.43.43,0,0,1,.31-.13c1.29-.1,1.93-.43,1.93-1V23.21a1,1,0,0,0-.61-1,4.43,4.43,0,0,0-1.39-.39.58.58,0,0,1-.34-.09.48.48,0,0,1-.08-.34.87.87,0,0,1,.1-.39.35.35,0,0,1,.29-.21h4.55l9.24,12.36h.14V23a.76.76,0,0,0-.36-.69,1.64,1.64,0,0,0-.68-.3l-1.09-.15a.54.54,0,0,1-.33-.09.48.48,0,0,1-.09-.34.89.89,0,0,1,.11-.39.34.34,0,0,1,.29-.21H76a.32.32,0,0,1,.28.21.89.89,0,0,1,.11.39.45.45,0,0,1-.08.3.39.39,0,0,1-.3.13c-.41.05-.74.1-1,.15a2.26,2.26,0,0,0-.73.32.75.75,0,0,0-.32.65V36.14a3.37,3.37,0,0,0,0,.44L74,37a.63.63,0,0,1-.26.62,1,1,0,0,1-.65.2,1,1,0,0,1-.36-.08.71.71,0,0,1-.27-.18L62.27,24.18h-.2V35.29a.76.76,0,0,0,.34.69,1.92,1.92,0,0,0,.69.31c.22,0,.59.08,1.09.14a.59.59,0,0,1,.34.1.49.49,0,0,1,.08.33.79.79,0,0,1-.12.39.31.31,0,0,1-.28.21ZM86,37.8a8,8,0,0,1-4.32-1.16,7.68,7.68,0,0,1-2.82-3.15,9.92,9.92,0,0,1-1-4.42,9.65,9.65,0,0,1,1-4.37,7.57,7.57,0,0,1,2.85-3.08,8.16,8.16,0,0,1,4.35-1.14,8,8,0,0,1,4.31,1.14,7.3,7.3,0,0,1,2.79,3.08,9.61,9.61,0,0,1,1,4.37,9.92,9.92,0,0,1-1,4.42,7.72,7.72,0,0,1-2.84,3.15A8,8,0,0,1,86,37.8Zm0-1.1a4.07,4.07,0,0,0,2.76-.89,5,5,0,0,0,1.46-2.57,16.79,16.79,0,0,0,.44-4.15A15.85,15.85,0,0,0,90.24,25a4.82,4.82,0,0,0-1.49-2.53,4.82,4.82,0,0,0-5.55,0A4.85,4.85,0,0,0,81.74,25a16.87,16.87,0,0,0-.42,4.11,11.9,11.9,0,0,0,1.08,5.68A3.84,3.84,0,0,0,86,36.7Zm11-13.94a1.15,1.15,0,0,0-.39-.58,1.29,1.29,0,0,0-.52-.24,4.77,4.77,0,0,0-.66-.07h-.31a.58.58,0,0,1-.34-.09.48.48,0,0,1-.08-.34A.77.77,0,0,1,94.9,21a.32.32,0,0,1,.28-.21h6.67a.31.31,0,0,1,.28.21.79.79,0,0,1,.12.39.51.51,0,0,1-.08.3.43.43,0,0,1-.31.13l-.48,0a4.63,4.63,0,0,0-.9.07q-.27.06-.27.27a.37.37,0,0,0,0,.15l4.43,11.92,4.1-11.57c0-.06,0-.11,0-.13,0-.22-.17-.39-.53-.5a4.67,4.67,0,0,0-1.34-.24.43.43,0,0,1-.31-.13.51.51,0,0,1-.08-.3.77.77,0,0,1,.11-.39.32.32,0,0,1,.29-.21h5.34a.31.31,0,0,1,.28.21.79.79,0,0,1,.12.39.54.54,0,0,1-.08.34.6.6,0,0,1-.34.09l-.61.05a1.61,1.61,0,0,0-.81.23,1.32,1.32,0,0,0-.48.62l-5.68,14.91h-1.44Zm31.65,13.67a.53.53,0,0,1,.33.1.43.43,0,0,1,.09.33.79.79,0,0,1-.12.39.31.31,0,0,1-.28.21h-6.35a.35.35,0,0,1-.3-.21.87.87,0,0,1-.1-.39.51.51,0,0,1,.08-.3.43.43,0,0,1,.31-.13l.48,0a6.25,6.25,0,0,0,.84-.06c.16,0,.25-.13.25-.26a.58.58,0,0,0,0-.18l-1.43-4.17h-5.62l-1.45,4.18a.59.59,0,0,0,0,.14c0,.14.09.23.26.27a5.51,5.51,0,0,0,.88.09c.11,0,.31,0,.57,0a.43.43,0,0,1,.31.13.51.51,0,0,1,.08.3.79.79,0,0,1-.12.39.31.31,0,0,1-.28.21h-5a.33.33,0,0,1-.29-.18.77.77,0,0,1-.11-.42.43.43,0,0,1,.09-.33.54.54,0,0,1,.34-.1h.31a4.16,4.16,0,0,0,.61-.06,1.11,1.11,0,0,0,.48-.25,1.29,1.29,0,0,0,.39-.58l5.46-15h2.16l5.33,15a1.36,1.36,0,0,0,.37.59,1.09,1.09,0,0,0,.48.24,5.18,5.18,0,0,0,.64.06Zm-8.89-12.89-2.63,7.19h4.94Zm12.82,13.92a.35.35,0,0,1-.29-.21.89.89,0,0,1-.11-.39.45.45,0,0,1,.09-.3.39.39,0,0,1,.3-.13,6.69,6.69,0,0,0,1.72-.28.85.85,0,0,0,.68-.82V22h-3a1.14,1.14,0,0,0-1,.72,5.81,5.81,0,0,0-.55,1.55,13.47,13.47,0,0,0-.22,1.49c0,.26-.2.39-.5.39a1,1,0,0,1-.4-.11.3.3,0,0,1-.2-.29c0-1.19.1-2.3.16-3.34s.15-1.57.23-1.57h13.75c.08,0,.16.56.23,1.68s.13,2.18.16,3.23a.32.32,0,0,1-.21.29.89.89,0,0,1-.39.11q-.46,0-.51-.39a11.52,11.52,0,0,0-.5-2.47Q141.77,22,140.9,22H138v13.3a.79.79,0,0,0,.37.71,2.24,2.24,0,0,0,.83.31q.47.07,1.17.12a.57.57,0,0,1,.34.1.49.49,0,0,1,.08.33.79.79,0,0,1-.12.39.31.31,0,0,1-.28.21Zm12.78-.6a.45.45,0,0,1,.08-.3.39.39,0,0,1,.3-.13,5.46,5.46,0,0,0,1.21-.22c.34-.12.5-.3.5-.53V23a.85.85,0,0,0-.27-.69,1.3,1.3,0,0,0-.59-.31c-.21,0-.52-.09-.92-.14a.6.6,0,0,1-.34-.09.54.54,0,0,1-.08-.34.89.89,0,0,1,.11-.39.32.32,0,0,1,.29-.21h12.17l.41,3.81a.3.3,0,0,1-.15.29.53.53,0,0,1-.31.11,1.52,1.52,0,0,1-.45-.07.72.72,0,0,1-.33-.32l-.44-.86a10.32,10.32,0,0,0-.58-1.06,1.55,1.55,0,0,0-.54-.54,1.53,1.53,0,0,0-.82-.2h-4.18v6.35h2.87a.81.81,0,0,0,.54-.41,3.69,3.69,0,0,0,.43-.84,3.38,3.38,0,0,0,.21-.75c0-.25.22-.38.54-.38a.59.59,0,0,1,.34.12.31.31,0,0,1,.19.28v5.19a.34.34,0,0,1-.19.3.63.63,0,0,1-.34.1.92.92,0,0,1-.38-.08.39.39,0,0,1-.19-.31,3.47,3.47,0,0,0-.2-.79,4.05,4.05,0,0,0-.44-.91.75.75,0,0,0-.58-.39h-2.8v5.68a1,1,0,0,0,1,1.13h3.37a2.51,2.51,0,0,0,1.82-.73A5.94,5.94,0,0,0,158,33.08a.44.44,0,0,1,.31-.28,1.28,1.28,0,0,1,.49-.11.81.81,0,0,1,.41.11.39.39,0,0,1,.21.29l-.54,4.36H145.84a.35.35,0,0,1-.29-.21A.87.87,0,0,1,145.45,36.86Zm16.62.6a.35.35,0,0,1-.29-.21.87.87,0,0,1-.1-.39.45.45,0,0,1,.08-.3.39.39,0,0,1,.3-.13,5.26,5.26,0,0,0,1.2-.22c.33-.12.5-.3.5-.53V23a.85.85,0,0,0-.27-.69,1.35,1.35,0,0,0-.59-.31c-.22,0-.52-.09-.92-.14a.6.6,0,0,1-.34-.09.54.54,0,0,1-.08-.34.87.87,0,0,1,.1-.39.35.35,0,0,1,.3-.21h7.37a10.25,10.25,0,0,1,5,1.13,7,7,0,0,1,2.91,2.91,8.45,8.45,0,0,1,.93,3.94A8.8,8.8,0,0,1,177,33.64a7.92,7.92,0,0,1-3.14,2.88,8.39,8.39,0,0,1-3.79.94Zm4.66-2c0,.21.17.4.52.55a5.25,5.25,0,0,0,1.91.24,7.29,7.29,0,0,0,2.89-.51A3.91,3.91,0,0,0,174,33.64a11.68,11.68,0,0,0,.76-4.78c0-2.63-.53-4.43-1.6-5.42a5.84,5.84,0,0,0-4.1-1.47h-2.31Z"/></svg>